<svg width="40" height="41" viewBox="0 0 40 41" fill="none" xmlns="http://www.w3.org/2000/svg">
<circle cx="20" cy="20.1076" r="20" fill="#2B7AF1"/>
<path d="M28.4025 12.9999H11.5975C11.4391 13.0001 11.2871 13.0608 11.1751 13.1687C11.0631 13.2765 11.0001 13.4228 11 13.5753V14.7327C11 14.786 11.0601 14.8472 11.1092 14.8719L19.9423 19.7281C19.9649 19.7406 19.9905 19.747 20.0166 19.7468C20.0432 19.7469 20.0694 19.74 20.0923 19.727L28.6585 14.8767C28.7066 14.8508 28.8343 14.7824 28.8822 14.7509C28.9402 14.7129 29 14.6784 29 14.6103V13.575C28.9998 13.4226 28.9368 13.2764 28.8248 13.1686C28.7128 13.0608 28.5609 13.0001 28.4025 12.9999Z" fill="white"/>
<path d="M28.9255 16.4777C28.9025 16.4651 28.8764 16.4586 28.85 16.4587C28.8235 16.4589 28.7975 16.4657 28.7747 16.4786L23.9271 19.2239C23.9078 19.2347 23.8912 19.2496 23.8787 19.2674C23.8662 19.2852 23.858 19.3055 23.8547 19.3268C23.8515 19.3481 23.8532 19.3698 23.8599 19.3904C23.8666 19.4109 23.8779 19.4298 23.8932 19.4455L28.7415 24.4758C28.7554 24.4903 28.7723 24.5019 28.7911 24.5098C28.8099 24.5177 28.8302 24.5218 28.8507 24.5217C28.8903 24.5217 28.9282 24.5065 28.9562 24.4795C28.9842 24.4526 29 24.4161 29 24.3779V16.6026C29.0002 16.5773 28.9933 16.5525 28.9802 16.5305C28.9671 16.5086 28.9482 16.4904 28.9255 16.4777Z" fill="white"/>
<path d="M22.53 20.1456C22.507 20.1215 22.4761 20.1057 22.4425 20.1009C22.4088 20.096 22.3745 20.1025 22.3451 20.1191L20.4021 21.2195C20.2882 21.2829 20.1592 21.3166 20.0278 21.3174C19.8963 21.3182 19.7668 21.2861 19.6521 21.2243L17.9421 20.284C17.9145 20.2689 17.8826 20.2626 17.8511 20.2661C17.8195 20.2695 17.7899 20.2826 17.7666 20.3033L11.273 26.1007C11.256 26.116 11.2429 26.1349 11.2349 26.156C11.2268 26.177 11.2239 26.1996 11.2265 26.2219C11.2291 26.2442 11.2371 26.2656 11.2498 26.2844C11.2625 26.3032 11.2796 26.3189 11.2997 26.3302C11.4007 26.3873 11.4981 26.4146 11.5973 26.4146H28.2304C28.2595 26.4146 28.288 26.4064 28.3123 26.391C28.3366 26.3756 28.3557 26.3537 28.3672 26.3279C28.3788 26.3023 28.3824 26.274 28.3775 26.2465C28.3726 26.2189 28.3594 26.1933 28.3396 26.1729L22.53 20.1456Z" fill="white"/>
<path d="M16.3378 19.6177C16.355 19.6024 16.3682 19.5834 16.3764 19.5623C16.3846 19.5411 16.3875 19.5185 16.3849 19.4961C16.3822 19.4737 16.3742 19.4522 16.3613 19.4333C16.3485 19.4144 16.3312 19.3988 16.3109 19.3875L11.2228 16.5903C11.2001 16.5779 11.1744 16.5714 11.1483 16.5716C11.1222 16.5717 11.0965 16.5785 11.074 16.5912C11.0514 16.6038 11.0327 16.622 11.0197 16.6438C11.0068 16.6656 11 16.6903 11 16.7154V24.0549C10.9998 24.0829 11.0082 24.1104 11.0241 24.1339C11.04 24.1574 11.0627 24.1759 11.0894 24.1871C11.1161 24.1983 11.1456 24.2017 11.1743 24.1969C11.203 24.1922 11.2296 24.1794 11.2508 24.1602L16.3378 19.6177Z" fill="white"/>
</svg>
