<svg width="40" height="41" viewBox="0 0 40 41" fill="none" xmlns="http://www.w3.org/2000/svg">
<circle cx="20" cy="20.1076" r="20" fill="#2B7AF1"/>
<path d="M20 11.2499C18.1773 11.2521 16.4299 11.9771 15.141 13.266C13.8522 14.5548 13.1272 16.3022 13.125 18.1249C13.1228 19.6145 13.6094 21.0636 14.51 22.2499C14.51 22.2499 14.6975 22.4968 14.7281 22.5324L20 28.7499L25.2744 22.5293C25.3019 22.4962 25.49 22.2499 25.49 22.2499L25.4906 22.2481C26.3908 21.0622 26.8771 19.6138 26.875 18.1249C26.8729 16.3022 26.1478 14.5548 24.859 13.266C23.5701 11.9771 21.8227 11.2521 20 11.2499ZM22.25 21.2499L20 19.8181L17.75 21.2499L18.125 18.7037L16.25 16.9831L18.875 16.6662L20 14.3749L21.195 16.6668L23.75 16.9831L21.875 18.7037L22.25 21.2499Z" fill="white"/>
</svg>
