<svg width="80" height="80" viewBox="0 0 80 80" fill="none" xmlns="http://www.w3.org/2000/svg">
<g clip-path="url(#clip0_1_4703)">
<path d="M56.0517 26.2639C53.7181 26.2639 51.4349 26.596 49.2337 27.2501C49.3209 26.4085 49.3659 25.5546 49.3659 24.6904C49.3659 20.7359 48.4582 16.9573 46.6685 13.4599C46.2751 12.6918 45.3338 12.3879 44.566 12.7809C43.798 13.1741 43.494 14.1152 43.887 14.8834C45.4492 17.9357 46.2412 21.2353 46.2412 24.6903C46.2412 36.5778 36.5701 46.2487 24.6827 46.2487C21.9114 46.2487 19.2124 45.7298 16.661 44.7059C16.0805 44.4736 15.4169 44.6091 14.9746 45.0512L11.5603 48.4658V42.5494C11.5603 42.0825 11.3514 41.64 10.991 41.3431C5.99173 37.2276 3.12438 31.1579 3.12438 24.6903C3.12438 12.8027 12.7955 3.13178 24.6829 3.13178C27.5521 3.13178 30.3377 3.68584 32.9626 4.77866C33.8094 5.13116 34.6427 5.54288 35.4391 6.00241C36.1863 6.43335 37.1416 6.17726 37.5729 5.42991C38.004 4.68272 37.7477 3.72725 37.0004 3.29616C36.0882 2.77006 35.1337 2.29819 34.1635 1.89428C31.1563 0.642245 27.9666 0.00724411 24.683 0.00724411C11.0728 0.00724411 0 11.0801 0 24.6903C0 31.8461 3.06485 38.5761 8.43595 43.2722V52.2372C8.43595 52.8691 8.81674 53.4388 9.40033 53.6805C9.59361 53.7605 9.79658 53.7994 9.99783 53.7994C10.4044 53.7994 10.8039 53.6406 11.1028 53.3419L16.4718 47.973C19.1043 48.9025 21.8613 49.3731 24.683 49.3731C27.2993 49.3731 29.821 48.9625 32.189 48.2048C32.1332 48.8723 32.1035 49.5423 32.1035 50.2119C32.1035 53.8691 32.9068 57.38 34.491 60.6477C34.7612 61.2042 35.3179 61.5286 35.8977 61.5286C36.1265 61.5286 36.3587 61.4783 36.5782 61.3717C37.3544 60.9953 37.6787 60.0608 37.3023 59.2844C35.9257 56.4453 35.2277 53.393 35.2277 50.212C35.2277 49.0947 35.3188 47.9758 35.4962 46.875C41.9366 43.723 46.8112 37.8481 48.6099 30.759C50.9817 29.85 53.4809 29.3882 56.0515 29.3882C67.5339 29.3882 76.8755 38.7298 76.8755 50.212C76.8755 56.5906 74.009 62.5313 69.0115 66.5111C68.6392 66.8074 68.4225 67.2572 68.4225 67.7332V74.6591L64.1432 70.3799C63.7264 69.9632 63.1109 69.8164 62.5514 70.0002C60.4578 70.6874 58.2709 71.036 56.0515 71.036C52.8765 71.036 49.8288 70.3404 46.9937 68.9683C46.2174 68.5927 45.2829 68.9174 44.907 69.6941C44.5312 70.4707 44.8562 71.4049 45.6327 71.7808C48.8957 73.3596 52.4012 74.1602 56.0515 74.1602C58.2765 74.1602 60.4742 73.8552 62.5976 73.2524L68.8801 79.5349C69.179 79.8338 69.5786 79.9924 69.9851 79.9924C70.1864 79.9924 70.3895 79.9535 70.5826 79.8735C71.1662 79.6316 71.547 79.0621 71.547 78.4302V68.4708C76.9291 63.9046 79.9998 57.2931 79.9998 50.2119C80.0002 37.007 69.2569 26.2639 56.0517 26.2639Z" fill="#2B7AF1"/>
<path d="M41.5498 65.1561C41.5018 65.1099 41.4543 65.0633 41.407 65.0163C40.7945 64.409 39.8051 64.4135 39.1978 65.0261C38.5904 65.6388 38.595 66.628 39.2076 67.2354C39.2628 67.2901 39.3181 67.3441 39.3737 67.3982C39.6773 67.6929 40.0696 67.8393 40.4617 67.8393C40.8693 67.8393 41.2767 67.6805 41.5829 67.3652C42.1837 66.746 42.1689 65.7569 41.5498 65.1561Z" fill="url(#paint0_linear_1_4703)"/>
<path d="M42.7962 7.9221C42.1179 7.19819 41.1331 7.30507 40.5727 7.82694C40.0126 8.34835 39.8357 9.3232 40.5093 10.0515C40.514 10.0565 40.5188 10.0616 40.5235 10.0666C40.8607 10.4215 41.2709 10.5735 41.6671 10.5735C42.074 10.5735 42.4656 10.413 42.7478 10.1471C43.3043 9.62179 43.4746 8.64585 42.7962 7.9221Z" fill="url(#paint1_linear_1_4703)"/>
<path d="M17.8874 19.2995C17.5967 19.0088 17.1952 18.8417 16.7828 18.8417C16.3719 18.8417 15.9689 19.0088 15.6783 19.2995C15.3878 19.5899 15.2206 19.9929 15.2206 20.4038C15.2206 20.8148 15.3878 21.2177 15.6783 21.5084C15.9689 21.799 16.3719 21.966 16.7828 21.966C17.1938 21.966 17.5967 21.799 17.8874 21.5084C18.1796 21.2177 18.345 20.8148 18.345 20.4038C18.345 19.9929 18.1794 19.5898 17.8874 19.2995Z" fill="url(#paint2_linear_1_4703)"/>
<path d="M33.6875 19.2995C33.3971 19.0088 32.9941 18.8417 32.583 18.8417C32.1705 18.8417 31.7675 19.0088 31.4771 19.2995C31.1864 19.5899 31.0208 19.9929 31.0208 20.4038C31.0208 20.8148 31.1866 21.2177 31.4771 21.5084C31.7691 21.799 32.1721 21.966 32.583 21.966C32.9939 21.966 33.3953 21.799 33.6875 21.5084C33.9782 21.2177 34.1452 20.8148 34.1452 20.4038C34.1452 19.9929 33.9783 19.5898 33.6875 19.2995Z" fill="url(#paint3_linear_1_4703)"/>
<path d="M30.6646 28.5279C29.8305 28.3046 28.9748 28.8005 28.7521 29.634C28.2602 31.4757 26.5869 32.762 24.683 32.762C22.7791 32.762 21.106 31.4757 20.614 29.634C20.3913 28.8004 19.5352 28.3044 18.7015 28.5279C17.8679 28.7507 17.3727 29.6068 17.5954 30.4404C18.4521 33.647 21.3665 35.8863 24.683 35.8863C27.9994 35.8863 30.914 33.647 31.7707 30.4404C31.9934 29.6066 31.4982 28.7505 30.6646 28.5279Z" fill="#2B7AF1"/>
<path d="M49.5189 44.9288C49.2284 44.6382 48.827 44.4712 48.4145 44.4712C48.0035 44.4712 47.6006 44.6382 47.3099 44.9288C47.0193 45.2196 46.8523 45.6224 46.8523 46.0334C46.8523 46.4459 47.0193 46.8473 47.3099 47.1377C47.6006 47.4284 48.0035 47.5956 48.4145 47.5956C48.827 47.5956 49.2284 47.4284 49.5189 47.1377C49.8111 46.8473 49.9767 46.4443 49.9767 46.0334C49.9767 45.6224 49.8111 45.2195 49.5189 44.9288Z" fill="url(#paint4_linear_1_4703)"/>
<path d="M64.7928 44.929C64.5022 44.6384 64.1006 44.4714 63.6883 44.4714C63.2774 44.4714 62.8744 44.6384 62.5838 44.929C62.2933 45.2196 62.1261 45.6226 62.1261 46.0336C62.1261 46.4461 62.2933 46.8475 62.5838 47.1379C62.8744 47.4286 63.2774 47.5957 63.6883 47.5957C64.1006 47.5956 64.5022 47.4284 64.7928 47.1379C65.0833 46.8475 65.2505 46.4445 65.2505 46.0336C65.2505 45.6226 65.0835 45.2196 64.7928 44.929Z" fill="url(#paint5_linear_1_4703)"/>
<path d="M49.1497 55.7506C49.9836 58.8729 52.822 61.0539 56.0515 61.0539C59.2811 61.0539 62.1194 58.8731 62.9536 55.7506C63.1764 54.917 62.6811 54.0609 61.8475 53.8381C61.0133 53.6147 60.1578 54.1108 59.935 54.9442C59.4655 56.7019 57.8683 57.9294 56.0517 57.9294C54.2347 57.9294 52.6376 56.7017 52.1683 54.9442C51.9817 54.2456 51.3503 53.7847 50.66 53.7847C50.5265 53.7847 50.3908 53.8019 50.2558 53.8381C49.422 54.0609 48.9268 54.917 49.1497 55.7506Z" fill="#2B7AF1"/>
</g>
<defs>
<linearGradient id="paint0_linear_1_4703" x1="38.7452" y1="66.2015" x2="42.0246" y2="66.1882" gradientUnits="userSpaceOnUse">
<stop stop-color="#FF7A00"/>
<stop offset="1" stop-color="#FFB039"/>
</linearGradient>
<linearGradient id="paint1_linear_1_4703" x1="40.074" y1="8.99043" x2="43.2393" y2="8.97766" gradientUnits="userSpaceOnUse">
<stop stop-color="#FF7A00"/>
<stop offset="1" stop-color="#FFB039"/>
</linearGradient>
<linearGradient id="paint2_linear_1_4703" x1="15.2206" y1="20.4038" x2="18.3456" y2="20.3912" gradientUnits="userSpaceOnUse">
<stop stop-color="#FF7A00"/>
<stop offset="1" stop-color="#FFB039"/>
</linearGradient>
<linearGradient id="paint3_linear_1_4703" x1="31.0208" y1="20.4038" x2="34.1458" y2="20.3912" gradientUnits="userSpaceOnUse">
<stop stop-color="#FF7A00"/>
<stop offset="1" stop-color="#FFB039"/>
</linearGradient>
<linearGradient id="paint4_linear_1_4703" x1="46.8523" y1="46.0334" x2="49.9773" y2="46.0208" gradientUnits="userSpaceOnUse">
<stop stop-color="#FF7A00"/>
<stop offset="1" stop-color="#FFB039"/>
</linearGradient>
<linearGradient id="paint5_linear_1_4703" x1="62.1261" y1="46.0336" x2="65.2511" y2="46.0209" gradientUnits="userSpaceOnUse">
<stop stop-color="#FF7A00"/>
<stop offset="1" stop-color="#FFB039"/>
</linearGradient>
<clipPath id="clip0_1_4703">
<rect width="80" height="80" fill="white"/>
</clipPath>
</defs>
</svg>
