<svg width="40" height="41" viewBox="0 0 40 41" fill="none" xmlns="http://www.w3.org/2000/svg">
<circle cx="20" cy="20.3545" r="20" fill="#2B7AF1"/>
<path d="M29.8061 25.4698C29.8061 25.3868 29.7231 25.3868 29.7231 25.3038C29.391 24.6396 28.6438 23.8094 27.6475 22.8961C27.1494 22.481 26.9003 22.1489 26.7343 21.9828C26.4852 21.6508 26.4852 21.4017 26.5683 21.0696C26.6513 20.8205 26.9834 20.4054 27.5645 19.6582C27.8966 19.2431 28.0626 18.994 28.3117 18.745C29.5571 17.0845 30.1382 16.0052 29.9722 15.5071L29.8892 15.424C29.8061 15.341 29.7231 15.258 29.5571 15.258C29.391 15.175 29.142 15.175 28.8929 15.258H25.738C25.655 15.258 25.655 15.258 25.4889 15.258C25.4059 15.258 25.3229 15.258 25.3229 15.258H25.2399H25.1569L25.0738 15.341C24.9908 15.424 24.9908 15.424 24.9908 15.5071C24.6587 16.4203 24.2436 17.1675 23.8285 17.9977C23.5794 18.4129 23.3303 18.828 23.0813 19.1601C22.8322 19.4922 22.6662 19.7412 22.5001 19.9073C22.3341 20.0733 22.168 20.1563 22.085 20.3224C22.002 20.4054 21.8359 20.4884 21.8359 20.4054C21.7529 20.4054 21.6699 20.4054 21.6699 20.3224C21.5869 20.2394 21.5038 20.1563 21.4208 20.0733C21.3378 19.9903 21.3378 19.8242 21.2548 19.6582C21.2548 19.4922 21.2548 19.3261 21.2548 19.2431C21.2548 19.1601 21.2548 18.911 21.2548 18.745C21.2548 18.4959 21.2548 18.3298 21.2548 18.2468C21.2548 17.9977 21.2548 17.6657 21.2548 17.3336C21.2548 17.0015 21.2548 16.7524 21.2548 16.5864C21.2548 16.4203 21.2548 16.1712 21.2548 16.0052C21.2548 15.7561 21.2548 15.5901 21.2548 15.5071C21.2548 15.424 21.1718 15.258 21.1718 15.175C21.0887 15.0919 21.0057 15.0089 20.9227 14.9259C20.8397 14.8429 20.6736 14.8429 20.5906 14.7599C20.1755 14.6768 19.6773 14.5938 19.0962 14.5938C17.7678 14.5938 16.8546 14.6768 16.5225 14.8429C16.3564 14.9259 16.1904 15.0089 16.1074 15.175C15.9413 15.341 15.9413 15.424 16.0243 15.424C16.4394 15.5071 16.7715 15.6731 16.9376 15.9222L17.0206 16.0882C17.1036 16.1712 17.1036 16.3373 17.1866 16.5864C17.2697 16.8354 17.2697 17.0845 17.2697 17.4166C17.2697 17.9147 17.2697 18.4129 17.2697 18.745C17.2697 19.1601 17.1866 19.4091 17.1866 19.6582C17.1866 19.9073 17.1036 20.0733 17.0206 20.1563C16.9376 20.3224 16.9376 20.4054 16.8546 20.4054C16.8546 20.4054 16.8546 20.4884 16.7715 20.4884C16.6885 20.4884 16.6055 20.5715 16.4394 20.5715C16.3564 20.5715 16.1904 20.4884 16.1074 20.4054C15.9413 20.3224 15.7753 20.1563 15.6922 19.9903C15.5262 19.8243 15.3601 19.5752 15.1941 19.2431C15.0281 18.911 14.779 18.5789 14.6129 18.0808L14.4469 17.7487C14.3639 17.5826 14.1978 17.2505 14.0318 16.8354C13.8657 16.4203 13.6997 16.0882 13.5336 15.6731C13.4506 15.5071 13.3676 15.424 13.2846 15.341H13.2016C13.2016 15.341 13.1185 15.258 13.0355 15.258C12.9525 15.258 12.8695 15.175 12.7864 15.175H9.79761C9.46552 15.175 9.29947 15.258 9.21645 15.341L9.13342 15.424C9.13342 15.424 9.13342 15.5071 9.13342 15.5901C9.13342 15.6731 9.13343 15.7561 9.21645 15.9222C9.63157 16.9184 10.1297 17.9147 10.6278 18.911C11.126 19.8243 11.6241 20.6545 11.9562 21.2356C12.3713 21.8168 12.7034 22.398 13.1185 22.8961C13.5336 23.3942 13.7827 23.7263 13.8657 23.8924C14.0318 24.0584 14.1148 24.1414 14.1978 24.2245L14.4469 24.4735C14.6129 24.6396 14.862 24.8887 15.1941 25.1377C15.5262 25.3868 15.9413 25.6359 16.3564 25.8849C16.7715 26.134 17.2697 26.3 17.7678 26.4661C18.349 26.6321 18.8471 26.7152 19.3452 26.6321H20.5906C20.8397 26.6321 21.0057 26.5491 21.1718 26.3831L21.2548 26.3C21.2548 26.217 21.3378 26.217 21.3378 26.134C21.3378 26.051 21.3378 25.968 21.3378 25.8019C21.3378 25.4698 21.3378 25.2207 21.4208 24.9717C21.5038 24.7226 21.5039 24.5566 21.5869 24.3905C21.6699 24.2245 21.7529 24.1414 21.8359 24.0584C21.919 23.9754 22.002 23.8924 22.002 23.8924H22.085C22.251 23.8094 22.5001 23.8924 22.6662 24.0584C22.9152 24.2245 23.1643 24.4735 23.3303 24.7226C23.4964 24.9717 23.7455 25.2207 24.0776 25.5528C24.4097 25.8849 24.6587 26.134 24.8248 26.217L25.0738 26.3831C25.2399 26.4661 25.4059 26.5491 25.655 26.6321C25.9041 26.7152 26.0701 26.7152 26.2361 26.7152L29.0589 26.6321C29.308 26.6321 29.5571 26.5491 29.7231 26.4661C29.8892 26.3831 29.9722 26.3 29.9722 26.134C29.9722 26.051 29.9722 25.8849 29.9722 25.8019C29.8061 25.6359 29.8061 25.5528 29.8061 25.4698Z" fill="white"/>
</svg>
